<?xml version="1.0" encoding="UTF-8" standalone="no"?>
<svg
   xmlns:dc="http://purl.org/dc/elements/1.1/"
   xmlns:cc="http://creativecommons.org/ns#"
   xmlns:rdf="http://www.w3.org/1999/02/22-rdf-syntax-ns#"
   xmlns:svg="http://www.w3.org/2000/svg"
   xmlns="http://www.w3.org/2000/svg"
   xmlns:sodipodi="http://sodipodi.sourceforge.net/DTD/sodipodi-0.dtd"
   xmlns:inkscape="http://www.inkscape.org/namespaces/inkscape"
   inkscape:version="1.0alpha2 (883c7bc, 2019-06-02)"
   sodipodi:docname="larger_medal.svg"
   id="svg838"
   version="1.1"
   viewBox="0 -7 94.251997 92.307944"
   height="200.00055"
   width="94.251999">
  <metadata
     id="metadata844">
    <rdf:RDF>
      <cc:Work
         rdf:about="">
        <dc:format>image/svg+xml</dc:format>
        <dc:type
           rdf:resource="http://purl.org/dc/dcmitype/StillImage" />
        <dc:title></dc:title>
      </cc:Work>
    </rdf:RDF>
  </metadata>
  <defs
     id="defs842" />
  <sodipodi:namedview
     inkscape:current-layer="svg838"
     inkscape:window-maximized="0"
     inkscape:window-y="25"
     inkscape:window-x="0"
     inkscape:cy="559.46372"
     inkscape:cx="400"
     inkscape:zoom="0.35"
     fit-margin-bottom="0"
     fit-margin-right="0"
     fit-margin-left="0"
     fit-margin-top="0"
     showgrid="false"
     id="namedview840"
     inkscape:window-height="929"
     inkscape:window-width="1554"
     inkscape:pageshadow="2"
     inkscape:pageopacity="0"
     guidetolerance="10"
     gridtolerance="10"
     objecttolerance="10"
     borderopacity="1"
     inkscape:document-rotation="0"
     bordercolor="#666666"
     pagecolor="#ffffff" />
  <g
     transform="matrix(7.8543332,0,0,7.8543332,-7e-7,44.902244)"
     id="g836"
     class="layer">
    <title
       id="title833">Layer 1</title>
    <path
       inkscape:connector-curvature="0"
       stroke-width="0px"
       id="path852"
       fill="#808080"
       d="M 1.20012,-13.46372 H 10.8 v 10.10371 l -4.81488,1.91999 -4.785,-1.91999 z m 4.785,12.0237 c -0.39051,0.00814 -0.705,0.32753 -0.705,0.72 0,0.39765 0.32234,0.72 0.72,0.72 0.39765,0 0.72,-0.32235 0.72,-0.72 0,-0.39763 -0.32235,-0.72 -0.72,-0.72 -0.00524,0 -0.00982,-10e-5 -0.01488,0 z M 6,-2e-5 C 2.6863,-2e-5 0,2.6863 0,6 0,9.3137 2.6863,12 6,12 9.3137,12 12,9.3137 12,6 12,2.6863 9.3137,-2e-5 6,-2e-5 Z" />
  </g>
</svg>
