<svg width="12" height="26" viewBox="0 -7 12 12" xmlns="http://www.w3.org/2000/svg" xmlns:svg="http://www.w3.org/2000/svg" version="1.1">

 <g class="layer">
  <title>Layer 1</title>
  <path d="m1.20012,-13.46372l9.59988,0l0,10.10371l-4.81488,1.91999l-4.785,-1.91999l0,-10.10371zm4.785,12.0237c-0.39051,0.00814 -0.705,0.32753 -0.705,0.72c0,0.39765 0.32234,0.72 0.72,0.72c0.39765,0 0.72,-0.32235 0.72,-0.72c0,-0.39763 -0.32235,-0.72 -0.72,-0.72c-0.00524,0 -0.00982,-0.0001 -0.01488,0l-0.00012,0zm0.01488,1.44c-3.3137,0 -6,2.68632 -6,6.00002c0,3.3137 2.6863,6 6,6c3.3137,0 6,-2.6863 6,-6c0,-3.3137 -2.6863,-6.00002 -6,-6.00002z" fill="#808080" id="path852" stroke-width="0px"/>
 </g>
</svg>